# AST/ASF file generated using VICON BodyLanguage
# -----------------------------------------------
:version 1.10
:name VICON
:units
  mass 1.0
  length 0.45
  angle deg
:documentation
   .ast/.asf automatically generated from VICON data using
   VICON BodyBuilder and BodyLanguage model FoxedUp or BRILLIANT.MOD
:root
   order TX TY TZ RX RY RZ
   axis XYZ
   position 0 0 0  
   orientation 0 0 0 
:bonedata
  begin
     id 1 
     name lhipjoint
     direction 0.650112 -0.723553 0.232005 
     length 2.45805 
     axis 0 0 0  XYZ
  end
  begin
     id 2 
     name lfemur
     direction 0.34202 -0.939693 0  
     length 7.00073  
     axis 0 0 20  XYZ
    dof rx ry rz
    limits (-160.0 20.0)
           (-70.0 70.0)
           (-60.0 70.0)
  end
  begin
     id 3 
     name ltibia
     direction 0.34202 -0.939693 0   
     length 7.8748   
     axis 0 0 20   XYZ
    dof rx
    limits (-10.0 170.0)
  end
  begin
     id 4 
     name lfoot
     direction 0.0542825 -0.14914 0.987325   
     length 1.75978   
     axis -90 7.62852e-016 20   XYZ
    dof rx rz
    limits (-45.0 90.0)
           (-70.0 20.0)
  end
  begin
     id 5 
     name ltoes
     direction 1.53509e-011 -4.21906e-011 1   
     length 0.893912   
     axis -90 7.62852e-016 20   XYZ
    dof rx
    limits (-90.0 20.0)
  end
  begin
     id 6 
     name rhipjoint
     direction -0.637897 -0.733345 0.235145   
     length 2.42522  
     axis 0 0 0  XYZ 
  end
  begin
     id 7 
     name rfemur
     direction -0.34202 -0.939693 0   
     length 7.02549   
     axis 0 0 -20   XYZ
    dof rx ry rz
    limits (-160.0 20.0)
           (-70.0 70.0)
           (-70.0 60.0)
  end
  begin
     id 8 
     name rtibia
     direction -0.34202 -0.939693 0   
     length 7.71512   
     axis 0 0 -20   XYZ
    dof rx
    limits (-10.0 170.0)
 end
 begin
     id 9 
     name rfoot
     direction -0.0822618 -0.226012 0.970645   
     length 1.90014  
     axis -90 -7.62852e-016 -20   XYZ
    dof rx rz
    limits (-45.0 90.0)
           (-20.0 70.0)
  end
  begin
     id 10 
     name rtoes
     direction -1.53542e-011 -4.21872e-011 1   
     length 0.957341   
     axis -90 -7.62852e-016 -20   XYZ
    dof rx
    limits (-90.0 20.0)
  end
  begin
     id 11 
     name lowerback
     direction -0.0022947 0.999774 -0.0211557   
     length 1.89909   
     axis 0 0 0   XYZ
    dof rx ry rz
    limits (-20.0 45.0)
           (-30.0 30.0)
           (-30.0 30.0)
  end
  begin
     id 12 
     name upperback
     direction 0.0107737 0.998635 0.0511027   
     length 1.8853   
     axis 0 0 0   XYZ
    dof rx ry rz
    limits (-20.0 45.0)
           (-30.0 30.0)
           (-30.0 30.0)
  end
  begin
     id 13 
     name thorax
     direction 0.011824 0.998136 0.0598754   
     length 1.88911   
     axis 0 0 0   XYZ
    dof rx ry rz
    limits (-20.0 45.0)
           (-30.0 30.0)
           (-30.0 30.0)
  end
  begin
     id 14 
     name lowerneck
     direction -0.0685355 0.990319 0.120714   
     length 1.91222   
     axis 0 0 0   XYZ
    dof rx ry rz
    limits (-20.0 45.0)
           (-30.0 30.0)
           (-30.0 30.0)
  end
  begin
     id 15 
     name upperneck
     direction 0.0886204 0.955665 -0.280805   
     length 1.92526   
     axis 0 0 0   XYZ
    dof rx ry rz
    limits (-20.0 45.0)
           (-30.0 30.0)
           (-30.0 30.0)
  end
  begin
     id 16
     name head
     direction 0.0233423 0.993502 -0.111393  
     length 1.96056  
     axis 0 0 0   XYZ
    dof rx ry rz
    limits (-20.0 45.0)
           (-30.0 30.0)
           (-30.0 30.0)
  end
  begin
     id 17 
     name lclavicle
     direction 0.941873 0.32922 0.0670041  
     length 3.31705  
     axis 0 0 0   XYZ
    dof ry rz
    limits (-20.0 10.0)
           (0.0 20.0)
  end
  begin
     id 18 
     name lhumerus
     direction 1 -4.4898e-011 3.38707e-028   
     length 5.29277   
     axis 180 -30 -90   XYZ
    dof rx ry rz
    limits (-60.0 90.0)
           (-90.0 90.0)
           (-90.0 90.0)
  end
  begin
     id 19
     name lradius
     direction 1 -4.48952e-011 1.63213e-028   
     length 2.85226   
     axis 180 -30 -90   XYZ
    dof rx
    limits (-10.0 170.0)
  end
  begin
     id 20
     name lwrist
     direction 1 -4.49001e-011 1.27856e-027   
     length 1.42613   
     axis -1.61767e-015 90 90   XYZ
    dof ry
    limits (-180.0 0.0)
 end
  begin
     id 21 
     name lhand
     direction 1 -4.48976e-011 2.55931e-027   
     length 0.602097   
     axis -1.63363e-015 90 90   XYZ
    dof rx rz
    limits (-90.0 90.0)
           (-45.0 45.0)
  end
  begin
     id 22 
     name lfingers
     direction 1 -4.48986e-011 5.11684e-027   
     length 0.485426   
     axis -3.26723e-015 90 90   XYZ
    dof rx
    limits (0.0 90.0)
  end
  begin
     id 23
     name lthumb
     direction 0.707107 -6.34915e-011 0.707107   
     length 0.696978   
     axis -90 45 -2.25915e-014   XYZ
    dof rx rz
    limits (-45.0 45.0)
           (-45.0 45.0)
  end
  begin
     id 24 
     name rclavicle
     direction -0.939974 0.327078 0.0973096   
     length 3.10337  
     axis 0 0 0   XYZ 
    dof ry rz
    limits (-10.0 20.0)
           (-20.0 0.0)
  end
  begin
     id 25 
     name rhumerus
     direction -1 -4.48975e-011 1.83745e-027  
     length 5.13304   
     axis 180 30 90   XYZ
    dof rx ry rz
    limits (-90.0 60.0)
           (-90.0 90.0)
           (-90.0 90.0)
  end
  begin
     id 26 
     name rradius
     direction -1 -4.48977e-011 7.1775e-029   
     length 2.74305   
     axis 180 30 90   XYZ
    dof rx
    limits (-10.0 170.0)
  end
  begin
     id 27 
     name rwrist
     direction -1 -4.48977e-011 1.27963e-027   
     length 1.37152   
     axis -1.61767e-015 -90 -90   XYZ
    dof ry
    limits (-180.0 0.0)
  end
  begin
     id 28
     name rhand
     direction -1 -4.4888e-011 2.56782e-027   
     length 0.767976   
     axis -1.63363e-015 -90 -90   XYZ
    dof rx rz
    limits (-90.0 90.0)
           (-45.0 45.0)
  end
  begin
     id 29
     name rfingers
     direction -1 -4.48947e-011 5.12384e-027   
     length 0.619162   
     axis -3.26723e-015 -90 -90   XYZ
    dof rx
    limits (0.0 90.0)
  end
  begin
     id 30
     name rthumb
     direction -0.707107 -6.34857e-011 0.707107   
     length 0.888997   
     axis -90 -45 2.25915e-014   XYZ
    dof rx rz
    limits (-45.0 45.0)
           (-45.0 45.0)
  end
:hierarchy
  begin
    root lhipjoint rhipjoint lowerback
    lhipjoint lfemur
    lfemur ltibia
    ltibia lfoot
    lfoot ltoes
    rhipjoint rfemur
    rfemur rtibia
    rtibia rfoot
    rfoot rtoes
    lowerback upperback
    upperback thorax
    thorax lowerneck lclavicle rclavicle
    lowerneck upperneck
    upperneck head
    lclavicle lhumerus
    lhumerus lradius
    lradius lwrist
    lwrist lhand lthumb
    lhand lfingers
    rclavicle rhumerus
    rhumerus rradius
    rradius rwrist
    rwrist rhand rthumb
    rhand rfingers
  end

#!OML:ASF F:\VICON\USERDATA\INSTALL\rory3\rory3.ASF
:FULLY-SPECIFIED
:DEGREES
642
root -0.291165 16.8925 0.0525035 -3.12907 36.6281 -0.143309
lowerback -0.254947 1.77 -1.31985
upperback 1.17253 2.37346 0.164105
thorax 1.28291 1.17222 0.938044
lowerneck -9.64028 -7.86907 -16.5862
upperneck 19.3682 -11.1096 15.2404
head 9.4891 -5.04707 6.76956
rclavicle 2.17669e-014 -1.98785e-016
rhumerus -24.1516 26.9781 -78.3936
rradius 143.43
rwrist -41.6955
rhand 29.1316 17.8925
rfingers 7.12502
rthumb 52.9245 -1.64757
lclavicle 2.17669e-014 -1.98785e-016
lhumerus -2.75981 -41.5674 67.6167
lradius 140.803
lwrist 53.1625
lhand 34.1361 23.7629
lfingers 7.12502
lthumb 57.382 40.0261
rfemur 2.76484 -9.35017 22.5505
rtibia 26.0199
rfoot -24.1742 -27.4392
rtoes -11.2027
lfemur -13.204 -21.6349 -16.796
ltibia 33.0248
lfoot -15.9781 -16.1322
ltoes -9.87451
643
root -0.301736 16.8923 0.0470948 -3.02308 36.8612 -0.179889
lowerback -0.405874 1.77988 -1.36768
upperback 1.10004 2.38814 0.198926
thorax 1.28946 1.17903 1.00427
lowerneck -8.46477 -7.67352 -16.8556
upperneck 19.0421 -10.9646 15.4577
head 9.15616 -5.03117 6.93929
rclavicle -1.46806e-014 -3.47873e-015
rhumerus -24.1618 26.9381 -78.4062
rradius 143.41
rwrist -41.6636
rhand 29.2265 17.7367
rfingers 7.12502
rthumb 53.0102 -1.74922
lclavicle -1.46806e-014 -3.47873e-015
lhumerus -2.73074 -41.4725 67.6492
lradius 140.839
lwrist 53.1269
lhand 34.0494 23.7432
lfingers 7.12502
lthumb 57.3061 40.0713
rfemur 2.53922 -9.29773 22.7064
rtibia 26.076
rfoot -24.1708 -27.6738
rtoes -11.1855
lfemur -13.524 -21.5889 -16.6381
ltibia 33.0787
lfoot -15.9567 -16.3633
ltoes -10.2238
644
root -0.306598 16.8926 0.0474137 -2.71339 37.1269 0.146023
lowerback -0.611092 1.81368 -1.58644
upperback 1.0097 2.43951 0.0874452
thorax 1.30641 1.20324 1.01843
lowerneck -7.15223 -7.48831 -17.0509
upperneck 18.6828 -10.8649 15.6641
head 8.79102 -5.03803 7.08808
rclavicle -1.13731e-013 -9.93923e-017
rhumerus -24.3073 26.8129 -78.4765
rradius 143.44
rwrist -41.6969
rhand 29.3012 17.7059
rfingers 7.12502
rthumb 53.0776 -1.73724
lclavicle -1.13731e-013 -9.93923e-017
lhumerus -2.64488 -41.4991 67.627
lradius 140.808
lwrist 53.1753
lhand 34.4077 23.7739
lfingers 7.12502
lthumb 57.62 39.8314
rfemur 2.3445 -9.34683 22.4895
rtibia 26.1989
rfoot -24.2694 -27.8255
rtoes -10.8813
lfemur -13.7609 -21.5589 -16.8407
ltibia 33.0899
lfoot -15.9081 -16.574
ltoes -10.3213
645
root -0.307453 16.891 0.0487796 -2.72616 37.4018 0.19222
lowerback -0.595955 1.8684 -1.38661
upperback 0.88144 2.51013 -0.0671493
thorax 1.17979 1.24284 0.746533
lowerneck -5.8289 -7.32426 -17.3321
upperneck 18.5233 -10.8399 16.0243
head 8.52134 -5.07395 7.30638
rclavicle -8.58408e-014 7.85199e-015
rhumerus -24.7212 26.632 -78.7876
rradius 143.482
rwrist -41.6025
rhand 29.3681 17.9162
rfingers 7.12502
rthumb 53.138 -1.48837
lclavicle -8.58408e-014 7.85199e-015
lhumerus -2.72908 -41.6875 67.6432
lradius 140.789
lwrist 53.3051
lhand 34.9452 23.8078
lfingers 7.12502
lthumb 58.0894 39.4487
rfemur 2.28729 -9.52031 22.4479
rtibia 26.3586
rfoot -24.3135 -27.9889
rtoes -10.7242
lfemur -13.7778 -21.5713 -16.8804
ltibia 33.0942
lfoot -15.7895 -16.892
ltoes -9.88597
646
root -0.307788 16.8882 0.0495465 -2.81718 37.6804 0.198411
lowerback -0.601936 1.87166 -1.24159
upperback 0.850973 2.51338 -0.142468
thorax 1.16139 1.24638 0.588273
lowerneck -4.61475 -7.11172 -17.6701
upperneck 18.287 -10.7191 16.3818
head 8.23219 -5.06642 7.54057
rclavicle 1.99095e-015 -4.57205e-015
rhumerus -24.8603 26.5384 -78.9538
rradius 143.455
rwrist -41.5201
rhand 29.5092 18.1799
rfingers 7.12502
rthumb 53.2652 -1.14308
lclavicle 1.99095e-015 -4.57205e-015
lhumerus -2.90943 -41.7891 67.646
lradius 140.785
lwrist 53.3241
lhand 35.2325 23.6115
lfingers 7.12502
lthumb 58.3395 39.0243
rfemur 2.3015 -9.74352 22.4096
rtibia 26.5125
rfoot -24.439 -28.0662
rtoes -10.6175
lfemur -13.7337 -21.6391 -16.9179
ltibia 33.097
lfoot -15.6905 -17.152
ltoes -9.54185
647
root -0.308229 16.8807 0.0503584 -2.91126 37.9139 0.210408
lowerback -0.716606 1.90174 -1.21733
upperback 0.895426 2.55544 -0.142694
thorax 1.27149 1.26672 0.580408
lowerneck -3.38224 -6.90105 -17.92
upperneck 17.9326 -10.5809 16.6091
head 7.88603 -5.05617 7.70941
rclavicle 6.83322e-015 2.5842e-015
rhumerus -24.7837 26.4602 -78.9033
rradius 143.425
rwrist -41.5491
rhand 29.7109 18.2826
rfingers 7.12502
rthumb 53.4468 -0.92268
lclavicle 6.83322e-015 2.5842e-015
lhumerus -2.84015 -41.8553 67.5684
lradius 140.684
lwrist 53.2487
lhand 35.3349 23.2399
lfingers 7.12502
lthumb 58.4285 38.5705
rfemur 2.45071 -9.96201 22.3716
rtibia 26.5727
rfoot -24.5112 -28.0319
rtoes -10.6388
lfemur -13.7162 -21.7333 -16.9583
ltibia 33.1582
lfoot -15.6967 -17.3268
ltoes -9.49414
648
root -0.308527 16.8754 0.0517123 -2.98385 38.1518 0.253628
lowerback -0.890763 1.92626 -1.26047
upperback 0.949555 2.59146 -0.101843
thorax 1.4202 1.28282 0.654653
lowerneck -2.03463 -6.66777 -18.2563
upperneck 17.528 -10.426 16.8652
head 7.50795 -5.04745 7.90731
rclavicle 6.59189e-014 -3.47873e-015
rhumerus -24.7211 26.4964 -78.8115
rradius 143.443
rwrist -41.5241
rhand 29.7824 18.3611
rfingers 7.12502
rthumb 53.5112 -0.802093
lclavicle 6.59189e-014 -3.47873e-015
lhumerus -2.65726 -41.7511 67.6096
lradius 140.54
lwrist 53.2835
lhand 35.3913 23.1185
lfingers 7.12502
lthumb 58.4775 38.4035
rfemur 2.57274 -10.1388 22.3062
rtibia 26.5734
rfoot -24.2921 -28.1266
rtoes -11.2811
lfemur -13.7346 -21.819 -17.0226
ltibia 33.3171
lfoot -15.7813 -17.502
ltoes -9.68103
649
root -0.308067 16.8752 0.0527723 -3.33874 38.4224 -0.0618582
lowerback -0.987559 1.87335 -1.0313
upperback 1.00463 2.517 0.0334605
thorax 1.53611 1.24633 0.668511
lowerneck -0.704532 -6.37938 -18.678
upperneck 17.165 -10.2011 17.138
head 7.14043 -5.00922 8.13436
rclavicle -7.7818e-014 2.08724e-015
rhumerus -24.6236 26.6872 -78.8013
rradius 143.429
rwrist -41.441
rhand 29.8255 18.4386
rfingers 7.12502
rthumb 53.55 -0.699204
lclavicle -7.7818e-014 2.08724e-015
lhumerus -2.60995 -41.5479 67.6329
lradius 140.37
lwrist 53.3597
lhand 35.2846 23.007
lfingers 7.12502
lthumb 58.3848 38.378
rfemur 2.66168 -10.2789 22.5294
rtibia 26.5231
rfoot -23.8399 -28.4413
rtoes -12.2711
lfemur -13.7186 -21.8471 -16.7953
ltibia 33.5436
lfoot -15.9138 -17.7233
ltoes -9.86282
650
root -0.307111 16.8617 0.0490098 -3.95402 38.65 -0.631542
lowerback -0.883767 1.85645 -0.460918
upperback 1.02853 2.48349 0.0899769
thorax 1.52453 1.23574 0.404088
lowerneck 0.724256 -6.08818 -18.8172
upperneck 16.7926 -10.003 17.3707
head 6.74094 -4.97222 8.29652
rclavicle 4.65156e-014 1.98785e-016
rhumerus -24.6528 26.6514 -79.0065
rradius 143.381
rwrist -41.3966
rhand 29.9594 18.5729
rfingers 7.12502
rthumb 53.6704 -0.485582
lclavicle 4.65156e-014 1.98785e-016
lhumerus -2.583 -41.4547 67.5309
lradius 140.323
lwrist 53.5784
lhand 35.1436 23.1545
lfingers 7.12502
lthumb 58.2622 38.6383
rfemur 3.10071 -10.602 22.9514
rtibia 26.4942
rfoot -24.3327 -28.2096
rtoes -11.1703
lfemur -13.6364 -21.7976 -16.4
ltibia 33.7973
lfoot -15.9726 -18.0519
ltoes -9.49602
651
root -0.306548 16.8535 0.0446954 -4.35931 38.8898 -1.02754
lowerback -0.841037 1.86792 0.0392627
upperback 1.01313 2.4913 0.0485814
thorax 1.50782 1.24555 0.081026
lowerneck 2.26286 -5.80221 -18.7849
upperneck 16.2775 -9.81851 17.5897
head 6.27295 -4.93797 8.42087
rclavicle 5.23052e-014 -5.36719e-015
rhumerus -24.782 26.4589 -79.316
rradius 143.37
rwrist -41.3677
rhand 30.1561 18.8146
rfingers 7.12502
rthumb 53.8473 -0.126199
lclavicle 5.23052e-014 -5.36719e-015
lhumerus -2.65283 -41.3642 67.6117
lradius 140.436
lwrist 53.7654
lhand 35.2892 23.5478
lfingers 7.12502
lthumb 58.3888 38.9151
rfemur 3.29112 -10.8199 23.249
rtibia 26.5514
rfoot -24.6504 -28.1735
rtoes -10.5868
lfemur -13.6453 -21.8044 -16.1171
ltibia 33.9897
lfoot -16.0184 -18.3231
ltoes -9.19226
